HIERARCHY
ROOT Hips
{
  OFFSET 5.80788e-005 67.184 3.4734
  CHANNELS 6 Xposition Yposition Zposition Zrotation Xrotation Yrotation
  JOINT Chest
  {
    OFFSET 0 8.7983 -4.7612
    CHANNELS 3 Zrotation Xrotation Yrotation
    JOINT Chest2
    {
      OFFSET 0 8.0291 0.4195
      CHANNELS 3 Zrotation Xrotation Yrotation
      JOINT Chest3
      {
        OFFSET 0 9.9351 -2.2114
        CHANNELS 3 Zrotation Xrotation Yrotation
        JOINT Neck
        {
          OFFSET 0 22.3885 -0.4656
          CHANNELS 3 Zrotation Xrotation Yrotation
          JOINT Head
          {
            OFFSET -0.0001 12.643 3.4389
            CHANNELS 3 Zrotation Xrotation Yrotation
            End Site
            {
              OFFSET 0.0001 17.6655 0.5274
            }
          }
        }
        JOINT LeftCollar
        {
          OFFSET 2.2603 21.606 7.4023
          CHANNELS 3 Zrotation Xrotation Yrotation
          JOINT LeftShoulder
          {
            OFFSET 13.5163 -1.1332 -5.0146
            CHANNELS 3 Zrotation Xrotation Yrotation
            JOINT LeftElbow
            {
              OFFSET -0.0995 -28.05 -0.2431
              CHANNELS 3 Zrotation Xrotation Yrotation
              JOINT LeftWrist
              {
                OFFSET 0.0679 -23.3996 -0.1402
                CHANNELS 3 Zrotation Xrotation Yrotation
                JOINT LeftFinger1
                {
                  OFFSET 0.7932 -9.069 2.5189
                  CHANNELS 3 Zrotation Xrotation Yrotation
                  JOINT LeftFinger11
                  {
                    OFFSET -0.8272 -3.3923 0.5977
                    CHANNELS 3 Zrotation Xrotation Yrotation
                    JOINT LeftFinger12
                    {
                      OFFSET -0.5649 -2.3158 0.4082
                      CHANNELS 3 Zrotation Xrotation Yrotation
                      End Site
                      {
                        OFFSET -0.4919 -1.6479 0.2673
                      }
                    }
                  }
                }
                JOINT LeftFinger2
                {
                  OFFSET 0.9159 -9.2044 0.2193
                  CHANNELS 3 Zrotation Xrotation Yrotation
                  JOINT LeftFinger21
                  {
                    OFFSET 0.0117 -4.1944 -0.0248
                    CHANNELS 3 Zrotation Xrotation Yrotation
                    JOINT LeftFinger22
                    {
                      OFFSET 0.0071 -2.3249 -0.0142
                      CHANNELS 3 Zrotation Xrotation Yrotation
                      End Site
                      {
                        OFFSET -0.1475 -2.0882 0.0028
                      }
                    }
                  }
                }
                JOINT LeftFinger3
                {
                  OFFSET 0.6113 -8.7231 -2.0637
                  CHANNELS 3 Zrotation Xrotation Yrotation
                  JOINT LeftFinger31
                  {
                    OFFSET -0.1927 -3.8059 -0.2383
                    CHANNELS 3 Zrotation Xrotation Yrotation
                    JOINT LeftFinger32
                    {
                      OFFSET -0.1091 -2.1688 -0.1362
                      CHANNELS 3 Zrotation Xrotation Yrotation
                      End Site
                      {
                        OFFSET -0.2358 -1.9176 -0.0906
                      }
                    }
                  }
                }
                JOINT LeftFinger4
                {
                  OFFSET -0.6151 -8.0947 -3.5641
                  CHANNELS 3 Zrotation Xrotation Yrotation
                  JOINT LeftFinger41
                  {
                    OFFSET -0.4882 -2.341 -0.6462
                    CHANNELS 3 Zrotation Xrotation Yrotation
                    JOINT LeftFinger42
                    {
                      OFFSET -0.3575 -1.7167 -0.4742
                      CHANNELS 3 Zrotation Xrotation Yrotation
                      End Site
                      {
                        OFFSET -0.4187 -1.5237 -0.3496
                      }
                    }
                  }
                }
                JOINT LeftFinger0
                {
                  OFFSET -1.42 -1.8761 1.4223
                  CHANNELS 3 Zrotation Xrotation Yrotation
                  JOINT LeftFinger01
                  {
                    OFFSET -1.1471 -3.4929 2.6334
                    CHANNELS 3 Zrotation Xrotation Yrotation
                    JOINT LeftFinger02
                    {
                      OFFSET -0.823 -2.3 1.6571
                      CHANNELS 3 Zrotation Xrotation Yrotation
                      End Site
                      {
                        OFFSET -0.5822 -1.6914 1.1582
                      }
                    }
                  }
                }
              }
            }
          }
        }
        JOINT RightCollar
        {
          OFFSET -2.2603 21.606 7.4023
          CHANNELS 3 Zrotation Xrotation Yrotation
          JOINT RightShoulder
          {
            OFFSET -13.5187 -1.1334 -5.0155
            CHANNELS 3 Zrotation Xrotation Yrotation
            JOINT RightElbow
            {
              OFFSET 0.0994 -28.0499 -0.2431
              CHANNELS 3 Zrotation Xrotation Yrotation
              JOINT RightWrist
              {
                OFFSET -0.0679 -23.3996 -0.1402
                CHANNELS 3 Zrotation Xrotation Yrotation
                JOINT RightFinger1
                {
                  OFFSET -0.7932 -9.0691 2.5189
                  CHANNELS 3 Zrotation Xrotation Yrotation
                  JOINT RightFinger11
                  {
                    OFFSET 0.8272 -3.3923 0.5977
                    CHANNELS 3 Zrotation Xrotation Yrotation
                    JOINT RightFinger12
                    {
                      OFFSET 0.565 -2.3158 0.4082
                      CHANNELS 3 Zrotation Xrotation Yrotation
                      End Site
                      {
                        OFFSET 0.4919 -1.6479 0.2673
                      }
                    }
                  }
                }
                JOINT RightFinger2
                {
                  OFFSET -0.916 -9.2044 0.2193
                  CHANNELS 3 Zrotation Xrotation Yrotation
                  JOINT RightFinger21
                  {
                    OFFSET -0.0117 -4.1944 -0.0248
                    CHANNELS 3 Zrotation Xrotation Yrotation
                    JOINT RightFinger22
                    {
                      OFFSET -0.0071 -2.3249 -0.0142
                      CHANNELS 3 Zrotation Xrotation Yrotation
                      End Site
                      {
                        OFFSET 0.1475 -2.0882 0.0028
                      }
                    }
                  }
                }
                JOINT RightFinger3
                {
                  OFFSET -0.6113 -8.7231 -2.0637
                  CHANNELS 3 Zrotation Xrotation Yrotation
                  JOINT RightFinger31
                  {
                    OFFSET 0.1927 -3.8059 -0.2383
                    CHANNELS 3 Zrotation Xrotation Yrotation
                    JOINT RightFinger32
                    {
                      OFFSET 0.1091 -2.1688 -0.1362
                      CHANNELS 3 Zrotation Xrotation Yrotation
                      End Site
                      {
                        OFFSET 0.2358 -1.9176 -0.0906
                      }
                    }
                  }
                }
                JOINT RightFinger4
                {
                  OFFSET 0.6151 -8.0947 -3.564
                  CHANNELS 3 Zrotation Xrotation Yrotation
                  JOINT RightFinger41
                  {
                    OFFSET 0.4882 -2.341 -0.6462
                    CHANNELS 3 Zrotation Xrotation Yrotation
                    JOINT RightFinger42
                    {
                      OFFSET 0.3574 -1.7166 -0.4742
                      CHANNELS 3 Zrotation Xrotation Yrotation
                      End Site
                      {
                        OFFSET 0.4187 -1.5237 -0.3496
                      }
                    }
                  }
                }
                JOINT RightFinger0
                {
                  OFFSET 1.4199 -1.8761 1.4221
                  CHANNELS 3 Zrotation Xrotation Yrotation
                  JOINT RightFinger01
                  {
                    OFFSET 1.1472 -3.4929 2.6336
                    CHANNELS 3 Zrotation Xrotation Yrotation
                    JOINT RightFinger02
                    {
                      OFFSET 0.8229 -2.3 1.6571
                      CHANNELS 3 Zrotation Xrotation Yrotation
                      End Site
                      {
                        OFFSET 0.5822 -1.6914 1.1582
                      }
                    }
                  }
                }
              }
            }
          }
        }
      }
    }
  }
  JOINT RightHip
  {
    OFFSET -9.412 3.9771 -0.7758
    CHANNELS 3 Zrotation Xrotation Yrotation
    JOINT RightKnee
    {
      OFFSET -0.7531 -40.938 0
      CHANNELS 3 Zrotation Xrotation Yrotation
      JOINT RightAnkle
      {
        OFFSET 0 -40.1986 0
        CHANNELS 3 Zrotation Xrotation Yrotation
        JOINT RightToe
        {
          OFFSET 0 -4.4182 9.239
          CHANNELS 3 Zrotation Xrotation Yrotation
          End Site
          {
            OFFSET 0 0 6.1981
          }
        }
      }
    }
  }
  JOINT LeftHip
  {
    OFFSET 9.4119 3.9773 -0.7758
    CHANNELS 3 Zrotation Xrotation Yrotation
    JOINT LeftKnee
    {
      OFFSET 0.7532 -40.9383 0
      CHANNELS 3 Zrotation Xrotation Yrotation
      JOINT LeftAnkle
      {
        OFFSET 0 -40.1986 0
        CHANNELS 3 Zrotation Xrotation Yrotation
        JOINT LeftToe
        {
          OFFSET 0 -4.4182 9.239
          CHANNELS 3 Zrotation Xrotation Yrotation
          End Site
          {
            OFFSET 0 0 6.1981
          }
        }
      }
    }
  }
}
MOTION
Frames:	6
Frame Time:	0.0333333
5.80788e-005 67.184 3.4734 0 0 -0 0 0 -0 0 0 -0 0 0 -0 0 0 -0 0 0 -0 0 0 -12.5014 88.1196 14.2451 10.6914 -0.00160068 -0.00239207 0.000740045 -8.4365e-005 7.00714e-005 -9.52055e-007 9.93923e-017 -1.98785e-016 -1.59028e-015 9.93923e-017 -5.96354e-016 -1.59028e-015 -9.93923e-017 -5.96354e-016 -1.59028e-015 9.93923e-017 -1.98785e-016 -1.59028e-015 -0.0128176 0.00232552 8.52707e-005 9.93923e-017 5.96354e-016 -0 9.93923e-017 -1.98785e-016 -1.59028e-015 -0.0160551 0.00299681 0.000857156 -2.48481e-016 0 3.18055e-015 9.93923e-017 -1.98785e-016 -1.59028e-015 -0.0125865 0.0031206 0.00282719 0 1.98785e-016 -0 9.93923e-017 -1.98785e-016 -1.59028e-015 9.93923e-017 -5.96354e-016 -1.59028e-015 -9.93923e-017 -5.96354e-016 -1.59028e-015 -0.865644 0.16582 7.03859 -88.0329 10.2057 -10.5567 0.0015593 -0.00248883 -0.000788628 7.87605e-005 4.10553e-005 1.24965e-005 -3.97569e-016 -7.95139e-016 3.18055e-015 -1.98785e-016 -3.97569e-016 3.18055e-015 -1.98785e-016 0 3.18055e-015 -3.97569e-016 -7.95139e-016 3.18055e-015 0.0129473 0.00231697 -8.70038e-005 9.93923e-017 -7.95139e-016 1.59028e-015 -3.97569e-016 -7.95139e-016 3.18055e-015 0.0163314 0.00303369 -0.000872333 3.97569e-016 7.95139e-016 -3.18055e-015 -3.97569e-016 -7.95139e-016 3.18055e-015 0.0145763 0.00367772 -0.00326275 9.93923e-017 -3.97569e-016 -0 -3.97569e-016 -7.95139e-016 3.18055e-015 -1.98785e-016 -3.97569e-016 3.18055e-015 -1.98785e-016 0 3.18055e-015 3.42485 1.36937 -0.0640303 0.000136572 0.69354 0.00145564 -3.42573 -2.06297 -0.0607933 -3.19502e-024 0 -1.48106e-024 -3.42498 1.36123 0.0639712 -6.769e-005 0.712612 -0.0012277 3.42582 -2.07388 0.0612819 2.55305e-023 0 -2.31416e-026 
-0.230016 38.8937 53.2186 132.698 -66.6673 -0.476479 -0.227778 3.36259 -0.148341 -0.447988 6.72568 -0.284036 -0.447994 6.7257 -0.284034 -7.84484e-006 5.23973 -3.65543e-006 5.19112e-006 -17.9658 -4.08061e-006 14.8413 -20.603 -12.0181 50.3968 -30.9193 13.1425 54.6386 -33.9658 110.466 -29.6559 -3.77665 0.458297 -6.75868e-015 3.18055e-015 -7.95139e-016 -9.48598e-006 7.6733e-006 4.32866e-006 7.84462e-006 -5.53843e-006 -1.311e-006 -6.75868e-015 3.18055e-015 -7.95139e-016 -0.0128708 0.00233993 8.96358e-005 5.90918e-006 -5.90705e-007 -5.07707e-006 -6.75868e-015 3.18055e-015 -7.95139e-016 -0.0160362 0.00300021 0.000858051 -3.10583e-006 1.03773e-006 4.31926e-006 -6.75868e-015 3.18055e-015 -7.95139e-016 -0.0124317 0.00309252 0.00279371 6.68353e-006 -1.58044e-006 -3.57047e-006 -6.75868e-015 3.18055e-015 -7.95139e-016 -9.48598e-006 7.6733e-006 4.32866e-006 7.84462e-006 -5.53843e-006 -1.311e-006 -15.6127 -20.2422 5.84604 -48.3264 -33.7465 -9.57975 -52.6625 -34.1236 -110.691 29.6576 -3.74048 -0.0849562 7.58306e-006 5.27543e-006 -1.75074e-006 -1.45064e-006 1.53679e-006 -3.07956e-006 4.41391e-032 -3.18055e-015 7.95139e-016 7.58306e-006 5.27543e-006 -1.75074e-006 0.0129421 0.00231265 -8.52621e-005 -3.57812e-015 0 1.59028e-015 7.58306e-006 5.27543e-006 -1.75074e-006 0.0163162 0.00302965 -0.00087566 -1.19271e-015 0 2.38542e-015 7.58306e-006 5.27543e-006 -1.75074e-006 0.0145017 0.00365991 -0.00324362 -1.27222e-014 0 3.18055e-015 7.58306e-006 5.27543e-006 -1.75074e-006 -1.45064e-006 1.53679e-006 -3.07956e-006 4.41391e-032 -3.18055e-015 7.95139e-016 -47.6628 -49.5536 -35.6423 28.9347 65.7604 -33.6094 -8.83257 25.9668 0.643502 2.73192e-006 -8.84882e-007 3.87186e-006 40.9298 -47.7955 29.4261 -28.7513 65.5928 33.1187 8.27005 25.3324 -0.632994 -7.95139e-015 0 -0 
1.19404 18.0463 71.5972 15.3856 -83.3257 -177.645 -0.322964 4.87536 -0.216266 -0.630828 9.75185 -0.407053 -0.630828 9.75185 -0.407052 -9.88542e-007 7.31588 5.1525e-006 -4.59124e-007 -25.1301 -1.85072e-006 21.6501 -29.8731 -11.7449 39.5622 -52.3441 17.7177 85.6581 -45.0204 165.217 -42.8834 -5.69914 1.46644 -9.54166e-015 -5.1684e-015 9.93923e-015 -3.18055e-015 -5.96354e-015 9.93923e-015 1.00416e-030 -5.1684e-015 1.11319e-014 -9.54166e-015 -5.1684e-015 9.93923e-015 -0.0128121 0.00232204 7.53146e-005 -1.10348e-032 3.97569e-016 1.59028e-015 -9.54166e-015 -5.1684e-015 9.93923e-015 -0.0160299 0.00299326 0.000852965 3.18055e-015 -3.97569e-016 -1.98785e-016 -9.54166e-015 -5.1684e-015 9.93923e-015 -0.0125648 0.00313338 0.00281672 -3.18055e-015 7.95139e-016 -0 -9.54166e-015 -5.1684e-015 9.93923e-015 -3.18055e-015 -5.96354e-015 9.93923e-015 1.00416e-030 -5.1684e-015 1.11319e-014 -22.5259 -29.4203 5.18767 -34.1633 -54.2778 -11.4645 -84.344 -45.9533 -165.715 42.9283 -5.52948 -0.958252 6.36111e-015 3.97569e-016 7.15625e-015 1.10507e-005 -1.10017e-005 1.37757e-006 5.52738e-006 -1.43e-006 -2.59509e-006 6.36111e-015 3.97569e-016 7.15625e-015 0.012978 0.00230975 -8.78103e-005 -6.7882e-006 4.2915e-006 7.25373e-006 6.36111e-015 3.97569e-016 7.15625e-015 0.0163205 0.00302652 -0.000864992 2.51855e-006 -1.339e-006 -2.74996e-006 6.36111e-015 3.97569e-016 7.15625e-015 0.0145737 0.00366164 -0.00325237 2.76535e-006 -2.34777e-006 -4.5811e-006 6.36111e-015 3.97569e-016 7.15625e-015 1.10507e-005 -1.10017e-005 1.37757e-006 5.52738e-006 -1.43e-006 -2.59509e-006 -100.631 -56.8241 -74.2937 120.094 69.4343 -122.096 -11.0211 37.331 0.90055 -9.84241e-006 3.43995e-008 -4.93927e-006 89.3654 -60.063 65.8396 -119.541 69.5029 121.857 11.2316 37.5313 -0.72171 3.6398e-006 9.85883e-006 1.13426e-006 
0.0492227 22.4634 67.7382 89.3142 -89.7452 -90.4186 -0.302199 4.53918 -0.201099 -0.591153 9.07936 -0.379887 -0.591156 9.07939 -0.379888 7.57513e-007 6.2284 7.60324e-007 1.60579e-007 -21.4915 5.62561e-007 20.1284 -27.8132 -11.8109 41.3391 -47.5874 16.1525 78.4248 -42.9473 152.748 -39.9557 -5.24905 1.20241 3.18055e-015 3.97569e-015 5.96354e-015 9.34878e-006 1.19392e-005 -3.38352e-006 9.93129e-032 -7.95139e-016 7.15625e-015 3.18055e-015 3.97569e-015 5.96354e-015 -0.0128416 0.00233743 8.69898e-005 -1.59028e-015 0 -6.36111e-015 3.18055e-015 3.97569e-015 5.96354e-015 -0.0160508 0.00300659 0.0008579 1.59028e-015 -1.11319e-014 4.77083e-015 3.18055e-015 3.97569e-015 5.96354e-015 -0.0126127 0.00313356 0.00283028 -1.59028e-015 -7.95139e-016 1.59028e-015 3.18055e-015 3.97569e-015 5.96354e-015 9.34878e-006 1.19392e-005 -3.38352e-006 9.93129e-032 -7.95139e-016 7.15625e-015 -20.9712 -27.3812 5.34549 -36.9193 -49.704 -10.6974 -76.8071 -43.7492 -153.082 39.9888 -5.11462 -0.721039 4.87858e-006 -7.0573e-006 9.80556e-007 -2.90381e-006 8.1155e-006 1.16855e-006 2.25911e-006 -1.77965e-006 -4.30875e-006 4.87858e-006 -7.0573e-006 9.80556e-007 0.0129753 0.00233063 -8.70745e-005 3.74317e-006 5.41444e-007 -7.52819e-007 4.87858e-006 -7.0573e-006 9.80556e-007 0.0163197 0.0030374 -0.000871941 -1.21098e-006 1.21273e-005 9.77529e-006 4.87858e-006 -7.0573e-006 9.80556e-007 0.0146023 0.00369426 -0.00326066 -3.18055e-015 6.36111e-015 -0 4.87858e-006 -7.0573e-006 9.80556e-007 -2.90381e-006 8.1155e-006 1.16855e-006 2.25911e-006 -1.77965e-006 -4.30875e-006 -87.41 -56.9582 -64.801 101.374 72.9766 -104.359 -10.6324 34.5795 0.797189 6.76232e-007 6.16832e-007 3.05208e-006 76.3926 -58.7157 55.7844 -101.485 72.9397 104.462 10.593 34.4992 -0.748826 -5.15186e-006 8.6059e-006 1.22703e-005 
0.0492227 22.4634 67.7382 89.3142 -89.7452 -90.4186 -0.302199 4.53918 -0.201099 -0.591153 9.07936 -0.379887 -0.591156 9.07939 -0.379888 8.05391e-007 5.71589 2.31692e-007 5.16618e-007 -19.8097 6.00421e-007 20.1284 -27.8132 -11.8109 41.3391 -47.5874 16.1525 78.4248 -42.9473 152.748 -39.9557 -5.24905 1.20241 3.18055e-015 3.97569e-015 5.96354e-015 9.34878e-006 1.19392e-005 -3.38352e-006 9.93129e-032 -7.95139e-016 7.15625e-015 3.18055e-015 3.97569e-015 5.96354e-015 -0.0128416 0.00233743 8.69898e-005 -1.59028e-015 0 -6.36111e-015 3.18055e-015 3.97569e-015 5.96354e-015 -0.0160508 0.00300659 0.0008579 1.59028e-015 -1.11319e-014 4.77083e-015 3.18055e-015 3.97569e-015 5.96354e-015 -0.0126127 0.00313356 0.00283028 -1.59028e-015 -7.95139e-016 1.59028e-015 3.18055e-015 3.97569e-015 5.96354e-015 9.34878e-006 1.19392e-005 -3.38352e-006 9.93129e-032 -7.95139e-016 7.15625e-015 -20.9712 -27.3812 5.34549 -36.9193 -49.704 -10.6974 -76.8071 -43.7492 -153.082 39.9888 -5.11462 -0.721039 4.87858e-006 -7.0573e-006 9.80556e-007 -2.90381e-006 8.1155e-006 1.16855e-006 2.25911e-006 -1.77965e-006 -4.30875e-006 4.87858e-006 -7.0573e-006 9.80556e-007 0.0129753 0.00233063 -8.70745e-005 3.74317e-006 5.41444e-007 -7.52819e-007 4.87858e-006 -7.0573e-006 9.80556e-007 0.0163197 0.0030374 -0.000871941 -1.21098e-006 1.21273e-005 9.77529e-006 4.87858e-006 -7.0573e-006 9.80556e-007 0.0146023 0.00369426 -0.00326066 -3.18055e-015 6.36111e-015 -0 4.87858e-006 -7.0573e-006 9.80556e-007 -2.90381e-006 8.1155e-006 1.16855e-006 2.25911e-006 -1.77965e-006 -4.30875e-006 -87.41 -56.9582 -64.801 101.374 72.9766 -104.359 -10.6324 34.5795 0.797189 6.76232e-007 6.16832e-007 3.05208e-006 76.3926 -58.7157 55.7844 -101.485 72.9397 104.462 10.593 34.4992 -0.748826 -5.15186e-006 8.6059e-006 1.22703e-005 
0.0492227 22.4634 67.7382 89.3142 -89.7452 -90.4186 -0.302199 4.53918 -0.201099 -0.591153 9.07936 -0.379887 -0.591156 9.07939 -0.379888 8.85294e-007 5.20326 9.89846e-007 2.78988e-007 -18.1226 -7.59767e-007 20.1284 -27.8132 -11.8109 41.3391 -47.5874 16.1525 78.4248 -42.9473 152.748 -39.9557 -5.24905 1.20241 3.18055e-015 3.97569e-015 5.96354e-015 9.34878e-006 1.19392e-005 -3.38352e-006 9.93129e-032 -7.95139e-016 7.15625e-015 3.18055e-015 3.97569e-015 5.96354e-015 -0.0128416 0.00233743 8.69898e-005 -1.59028e-015 0 -6.36111e-015 3.18055e-015 3.97569e-015 5.96354e-015 -0.0160508 0.00300659 0.0008579 1.59028e-015 -1.11319e-014 4.77083e-015 3.18055e-015 3.97569e-015 5.96354e-015 -0.0126127 0.00313356 0.00283028 -1.59028e-015 -7.95139e-016 1.59028e-015 3.18055e-015 3.97569e-015 5.96354e-015 9.34878e-006 1.19392e-005 -3.38352e-006 9.93129e-032 -7.95139e-016 7.15625e-015 -20.9712 -27.3812 5.34549 -36.9193 -49.704 -10.6974 -76.8071 -43.7492 -153.082 39.9888 -5.11462 -0.721039 4.87858e-006 -7.0573e-006 9.80556e-007 -2.90381e-006 8.1155e-006 1.16855e-006 2.25911e-006 -1.77965e-006 -4.30875e-006 4.87858e-006 -7.0573e-006 9.80556e-007 0.0129753 0.00233063 -8.70745e-005 3.74317e-006 5.41444e-007 -7.52819e-007 4.87858e-006 -7.0573e-006 9.80556e-007 0.0163197 0.0030374 -0.000871941 -1.21098e-006 1.21273e-005 9.77529e-006 4.87858e-006 -7.0573e-006 9.80556e-007 0.0146023 0.00369426 -0.00326066 -3.18055e-015 6.36111e-015 -0 4.87858e-006 -7.0573e-006 9.80556e-007 -2.90381e-006 8.1155e-006 1.16855e-006 2.25911e-006 -1.77965e-006 -4.30875e-006 -87.41 -56.9582 -64.801 101.374 72.9766 -104.359 -10.6324 34.5795 0.797189 6.76232e-007 6.16832e-007 3.05208e-006 76.3926 -58.7157 55.7844 -101.485 72.9397 104.462 10.593 34.4992 -0.748826 -5.15186e-006 8.6059e-006 1.22703e-005 
